<?xml version="1.0" encoding="utf-8"?>
<!-- Generator: Adobe Illustrator 24.3.0, SVG Export Plug-In . SVG Version: 6.00 Build 0)  -->
<svg version="1.1" id="Ebene_1" xmlns="http://www.w3.org/2000/svg" xmlns:xlink="http://www.w3.org/1999/xlink" x="0px" y="0px"
	 viewBox="0 0 78.5 92" style="enable-background:new 0 0 78.5 92;" xml:space="preserve">
<g>
	<path d="M74.5,67.3c-1.2-11.2-5.5-16.1-14-18.5v0c3.5-1.5,6.4-3.4,8.6-5.9c4.1-4.5,6.1-10.2,6.1-17.1c0-5.4-1.3-10.3-4-14.5
		C68.5,7.1,65,4.1,60.5,2.5C56.1,0.8,48.9,0,39.1,0H0v92h18.6V53.6h0v0h20.2c11.6,0,17.2,7.2,18,17.2c0.8,9.9,1,20.2,3.3,21.2h18.4
		v-0.9C75.3,89.7,75.8,80.3,74.5,67.3z M44.4,38.9H30.2c-6.4,0-11.7-5.2-11.7-11.7s5.2-11.7,11.7-11.7h14.2
		c6.4,0,11.7,5.2,11.7,11.7S50.9,38.9,44.4,38.9z"/>
</g>
</svg>
